mtllib black lives matter_candidates.mtl
g candidates
v -3.500000 0.000000 1.625000
v -1.875000 1.624969 1.625000
v -3.500000 3.249969 1.625000
v 3.500000 3.249969 1.625000
v 1.875000 1.625031 1.625000
v 3.500000 0.000000 1.625000
v -3.500000 0.000000 1.625000
v -3.500000 3.249969 1.625000
v -3.500000 0.000000 -1.625000
v -3.500000 3.249969 -1.625000
v -3.500000 3.249969 1.625000
v 3.500000 3.249969 1.625000
v -3.500000 3.249969 -1.625000
v 3.500000 3.249969 -1.625000
v 3.500000 3.249969 1.625000
v 3.500000 0.000000 1.625000
v 3.500000 3.249969 -1.625000
v 3.500000 0.000000 -1.625000
v 3.500000 0.000000 1.625000
v -3.500000 0.000000 1.625000
v 3.500000 0.000000 -1.625000
v -3.500000 0.000000 -1.625000
v -3.500000 0.000000 -1.625000
v -1.875000 1.624969 -1.625000
v -3.500000 3.249969 -1.625000
v 3.500000 3.249969 -1.625000
v 1.875000 1.625031 -1.625000
v 3.500000 0.000000 -1.625000
vt 0.000000 0.000000
vt 0.232146 0.499992
vt 0.000000 1.000000
vt 1.000000 1.000000
vt 0.767854 0.500008
vt 1.000000 0.000000
vt 1.000000 1.000000
vt 0.841464 1.000000
vt 1.000000 0.000000
vt 0.841464 0.000000
vt 0.841464 1.000000
vt 0.500000 1.000000
vt 0.841464 0.000000
vt 0.500000 0.000000
vt 0.500000 1.000000
vt 0.341464 1.000000
vt 0.500000 0.000000
vt 0.341464 0.000000
vt 0.341464 1.000000
vt 0.000000 1.000000
vt 0.341464 0.000000
vt 0.000000 0.000000
vt 0.000000 0.000000
vt 0.232146 0.499992
vt 0.000000 1.000000
vt 1.000000 1.000000
vt 0.767854 0.500008
vt 1.000000 0.000000
vn 0.000000 0.000000 1.000000
vn 0.000000 0.000000 1.000000
vn 0.000000 0.000000 1.000000
vn 0.000000 0.000000 1.000000
vn 0.000000 0.000000 1.000000
vn 0.000000 0.000000 1.000000
vn -1.000000 0.000000 0.000000
vn -1.000000 0.000000 0.000000
vn -1.000000 0.000000 0.000000
vn -1.000000 0.000000 0.000000
vn 0.000000 1.000000 0.000000
vn 0.000000 1.000000 0.000000
vn 0.000000 1.000000 0.000000
vn 0.000000 1.000000 0.000000
vn 1.000000 0.000000 0.000000
vn 1.000000 0.000000 0.000000
vn 1.000000 0.000000 0.000000
vn 1.000000 0.000000 0.000000
vn 0.000000 -1.000000 0.000000
vn 0.000000 -1.000000 0.000000
vn 0.000000 -1.000000 0.000000
vn 0.000000 -1.000000 0.000000
vn 0.000000 0.000000 -1.000000
vn 0.000000 0.000000 -1.000000
vn 0.000000 0.000000 -1.000000
vn 0.000000 0.000000 -1.000000
vn 0.000000 0.000000 -1.000000
vn 0.000000 0.000000 -1.000000
usemtl candidates Front Inflation Material
f 3/3/3 1/1/1 2/2/2
f 4/4/4 3/3/3 5/5/5
f 6/6/6 4/4/4 5/5/5
f 1/1/1 6/6/6 2/2/2
f 2/2/2 5/5/5 3/3/3
f 5/5/5 2/2/2 6/6/6
usemtl candidates Front Bevel Material
f 1/1/1 1/1/1 1/1/1
usemtl candidates Extrusion Material
f 9/9/9 7/7/7 8/8/8
f 9/9/9 8/8/8 10/10/10
f 13/13/13 11/11/11 12/12/12
f 13/13/13 12/12/12 14/14/14
f 17/17/17 15/15/15 16/16/16
f 17/17/17 16/16/16 18/18/18
f 21/21/21 19/19/19 20/20/20
f 21/21/21 20/20/20 22/22/22
usemtl candidates Back Bevel Material
f 1/1/1 1/1/1 1/1/1
usemtl candidates Back Inflation Material
f 23/23/23 25/25/25 24/24/24
f 25/25/25 26/26/26 27/27/27
f 26/26/26 28/28/28 27/27/27
f 28/28/28 23/23/23 24/24/24
f 27/27/27 24/24/24 25/25/25
f 24/24/24 27/27/27 28/28/28
